<!DOCTYPE svg PUBLIC "-//W3C//DTD SVG 20010904//EN" "http://www.w3.org/TR/2001/REC-SVG-20010904/DTD/svg10.dtd">
<svg version="1.0" xmlns="http://www.w3.org/2000/svg" width="1200px" height="1200px" viewBox="0 0 12000 12000" preserveAspectRatio="xMidYMid meet">
<g id="layer101" fill="#ffffff" stroke="none">
 <path d="M4619 9624 c-51 -31 -148 -87 -214 -124 -66 -38 -129 -75 -139 -83 -19 -14 -16 -20 64 -158 104 -179 199 -344 586 -1014 114 -198 217 -378 230 -400 12 -22 115 -200 227 -395 l205 -354 -103 -107 c-237 -246 -361 -506 -411 -864 -35 -252 21 -559 149 -812 413 -819 1467 -1058 2192 -498 630 488 749 1383 269 2030 -59 80 -211 230 -299 296 -271 203 -667 315 -987 280 -113 -12 -278 -46 -310 -62 -14 -8 -29 10 -89 113 -39 68 -102 176 -140 240 -38 64 -69 119 -69 122 0 3 -31 57 -70 121 -38 64 -70 118 -70 120 0 4 -117 206 -241 417 -38 64 -69 119 -69 122 0 3 -31 57 -70 121 -38 64 -70 118 -70 120 0 2 -36 65 -80 140 -44 75 -80 138 -80 140 0 2 -31 56 -70 120 -38 64 -70 118 -70 122 0 3 -29 54 -65 113 -36 59 -65 111 -65 114 0 4 -10 22 -23 41 l-23 34 -95 -55z m2052 -2500 c647 -90 1098 -699 994 -1341 -85 -524 -495 -911 -1042 -984 -244 -32 -561 51 -783 206 -75 52 -211 186 -270 265 -283 382 -302 906 -48 1318 62 101 241 287 333 347 149 98 329 167 495 190 130 18 190 18 321 -1z"/>
 <path d="M5624 6313 c-42 -100 -57 -186 -58 -333 -1 -157 10 -227 55 -346 70 -190 191 -342 365 -459 162 -110 326 -159 529 -158 153 0 280 28 405 90 l75 36 -75 8 c-41 5 -104 13 -140 19 -36 5 -146 17 -245 25 -180 15 -252 30 -333 67 -52 23 -141 77 -161 96 -8 7 -25 20 -38 29 -38 25 -141 160 -178 233 -35 70 -75 203 -75 251 0 15 -20 121 -45 236 -25 114 -45 216 -45 225 0 30 -20 20 -36 -19z"/>
 <path d="M1986 7403 c-3 -16 -31 -170 -61 -343 -54 -310 -74 -422 -100 -570 -7 -41 -21 -118 -30 -170 -9 -52 -23 -131 -31 -175 -7 -44 -50 -285 -94 -535 -116 -666 -120 -688 -135 -775 -8 -44 -21 -118 -30 -165 -8 -47 -15 -91 -15 -97 0 -10 84 -13 385 -13 l385 0 4 23 c3 12 23 171 46 352 22 182 54 436 70 565 31 236 58 477 106 930 14 135 28 255 30 268 8 41 22 23 34 -45 6 -38 18 -102 25 -143 8 -41 21 -118 30 -170 9 -52 23 -129 30 -170 7 -41 21 -118 30 -170 26 -148 33 -182 140 -675 13 -60 40 -184 60 -275 20 -91 47 -217 61 -280 14 -63 30 -136 36 -162 l12 -48 312 0 c180 0 315 4 319 9 3 5 10 31 15 58 5 26 30 143 55 258 26 116 55 248 65 295 18 82 80 369 120 552 27 123 117 620 156 863 17 104 22 125 33 125 9 0 14 -44 66 -525 36 -335 41 -374 121 -1005 25 -195 53 -416 62 -490 l17 -135 358 -3 c336 -2 357 -1 357 15 0 15 -123 765 -195 1193 -9 52 -23 136 -31 185 -8 50 -19 113 -24 140 -6 28 -14 79 -20 115 -5 36 -16 106 -24 155 -8 50 -20 119 -25 155 -6 36 -15 90 -21 120 -11 58 -130 780 -130 786 0 2 -216 4 -479 4 -448 0 -480 -1 -485 -17 -3 -10 -23 -115 -46 -233 -22 -118 -52 -269 -65 -335 -24 -121 -104 -536 -130 -675 -29 -159 -75 -460 -75 -500 0 -28 -16 -58 -25 -48 -3 3 -10 37 -16 74 -33 234 -64 431 -93 584 -8 41 -21 113 -30 160 -20 108 -41 223 -61 328 -19 104 -35 189 -80 432 -20 107 -38 203 -41 213 -5 16 -36 17 -474 17 l-468 0 -6 -27z"/>
 <path d="M8250 5994 l0 -1436 663 5 c619 4 669 5 772 25 235 45 386 106 518 211 137 109 219 241 274 441 23 84 26 436 4 515 -58 215 -117 324 -245 450 -109 108 -227 180 -381 233 -187 65 -325 82 -647 82 l-208 0 0 455 0 455 -375 0 -375 0 0 -1436z m1281 -102 c162 -64 233 -180 233 -379 -1 -94 -3 -107 -33 -167 -72 -146 -183 -186 -522 -186 l-209 0 0 381 0 381 238 -4 c217 -3 242 -6 293 -26z"/>
 </g>

</svg>